<?xml version="1.0" encoding="utf-8"?>
<!-- Generator: Adobe Illustrator 27.9.0, SVG Export Plug-In . SVG Version: 6.00 Build 0)  -->
<svg version="1.1" id="Layer_1" xmlns="http://www.w3.org/2000/svg" xmlns:xlink="http://www.w3.org/1999/xlink" x="0px" y="0px"
	 viewBox="0 0 361 361" style="enable-background:new 0 0 361 361;" xml:space="preserve">
<style type="text/css">
	.st0{display:none;}
	.st1{display:inline;fill:url(#SVGID_1_);}
	.st2{display:none;fill:#F1F2F2;}
	.st3{fill:url(#SVGID_00000009581948524214642790000002496556343424816800_);}
	.st4{display:inline;}
	.st5{display:inline;fill:url(#SVGID_00000013915464687492982840000000670268401403527823_);}
	.st6{fill:#FFFFFF;}
</style>
<g id="Assets" class="st0">
	
		<image style="display:inline;overflow:visible;enable-background:new    ;" width="996" height="447" xlink:href="DA6DEA45.jpeg"  transform="matrix(0.9978 0 0 0.9978 -451.5557 292.833)">
	</image>
	
		<linearGradient id="SVGID_1_" gradientUnits="userSpaceOnUse" x1="-323.8562" y1="329.8239" x2="-19.1298" y2="254.4244" gradientTransform="matrix(0.6758 0.3902 0.4225 -0.7318 -280.1972 463.6785)">
		<stop  offset="0" style="stop-color:#F4AA88"/>
		<stop  offset="4.750000e-02" style="stop-color:#EEAD8B"/>
		<stop  offset="0.1161" style="stop-color:#DFB695"/>
		<stop  offset="0.1974" style="stop-color:#C4C3A5"/>
		<stop  offset="0.2826" style="stop-color:#9ACFBA"/>
		<stop  offset="0.5312" style="stop-color:#50C6DC"/>
		<stop  offset="0.7253" style="stop-color:#717DBC"/>
		<stop  offset="1" style="stop-color:#C99EC9"/>
	</linearGradient>
	<polygon class="st1" points="-211.6,298 -402.8,187.6 -333.7,67.9 -142.5,178.3 	"/>
</g>
<g id="Logo_Vector">
	<rect id="BG" x="-101.9" y="-19.3" class="st2" width="562.1" height="562.1"/>
	<g id="Typeface">
		<g id="Icon">
			<g>
				<g>
					<path d="M258.2,111.5c-4.3-5.7-9.2-10.8-14.7-15.3c-5.5-4.5-11.2-8.4-17.1-11.6c-5.9-3.2-12-5.7-18.2-7.4
						c-6.2-1.7-12.3-2.6-18.4-2.6c-10.5,0-20.3,2-29.2,6.1c-9,4.1-16.7,9.7-23.4,16.8c-6.6,7.1-11.8,15.5-15.6,25.3
						c-3.8,9.7-5.6,20.3-5.6,31.8c0,11.3,1.9,21.9,5.6,31.7c3.8,9.8,8.9,18.3,15.6,25.6c6.6,7.2,14.4,12.9,23.4,17
						c8.9,4.1,18.7,6.1,29.2,6.1c5.8,0,11.7-0.8,17.7-2.3c6-1.5,11.9-3.7,17.9-6.5c5.9-2.8,11.7-6.2,17.3-10.3
						c5.6-4,10.8-8.5,15.5-13.5l42.8,45.2c-7.4,7.8-15.6,14.8-24.7,21.2c-9.1,6.4-18.6,11.8-28.4,16.4c-9.9,4.5-20.1,8.1-30.6,10.6
						c-10.5,2.5-20.9,3.8-31.2,3.8c-20.8,0-40.1-3.7-57.8-11s-33.1-17.4-46-30.3c-12.9-12.9-23-28.1-30.4-45.7
						c-7.4-17.6-11.1-36.6-11.1-57.1c0-20.3,3.8-39.1,11.3-56.5c7.5-17.4,17.9-32.4,31.1-45C96.4,41.2,112,31.3,130.1,24
						c18-7.2,37.6-10.9,58.8-10.9c10.3,0,20.6,1.2,30.9,3.5c10.3,2.3,20.4,5.5,30.1,9.7c9.7,4.1,18.9,9.1,27.6,15
						c8.7,5.9,16.4,12.5,23.3,19.8L258.2,111.5z"/>
				</g>
				<g>
					<path d="M57.6,107.1c6.8-7.4,14.6-14,23.3-19.8c8.7-5.9,17.9-10.9,27.6-15c9.7-4.1,19.8-7.4,30.1-9.7
						c10.3-2.3,20.6-3.5,30.9-3.5c21.2,0,40.8,3.6,58.8,10.9c18,7.2,33.7,17.2,46.9,29.8s23.6,27.6,31.1,45
						c7.5,17.4,11.2,36.2,11.2,56.5c0,20.5-3.7,39.6-11.1,57.1c-7.4,17.6-17.5,32.8-30.4,45.7c-12.9,12.9-28.2,23-46,30.3
						s-37,11-57.8,11c-10.3,0-20.7-1.3-31.2-3.8c-10.5-2.5-20.7-6-30.6-10.6c-9.9-4.5-19.3-10-28.4-16.4
						c-9.1-6.4-17.3-13.5-24.7-21.2l42.8-45.2c4.7,5,9.9,9.5,15.5,13.5c5.6,4,11.4,7.4,17.3,10.3c5.9,2.8,11.9,5,17.9,6.5
						c6,1.5,11.9,2.3,17.7,2.3c10.5,0,20.3-2,29.2-6.1c9-4.1,16.7-9.7,23.4-17c6.6-7.2,11.8-15.8,15.6-25.6
						c3.8-9.8,5.6-20.4,5.6-31.7c0-11.4-1.9-22-5.6-31.8c-3.8-9.7-8.9-18.2-15.6-25.3c-6.6-7.1-14.4-12.7-23.4-16.8
						c-8.9-4.1-18.7-6.1-29.2-6.1c-6.1,0-12.2,0.9-18.4,2.6c-6.2,1.7-12.2,4.2-18.2,7.4c-5.9,3.2-11.6,7.1-17.1,11.6
						c-5.5,4.5-10.4,9.6-14.7,15.3L57.6,107.1z"/>
				</g>
			</g>
			<g>
				
					<linearGradient id="SVGID_00000096755513683014608470000002139469637842798252_" gradientUnits="userSpaceOnUse" x1="238.9874" y1="221.0838" x2="90.3168" y2="369.7544" gradientTransform="matrix(1 0 0 -1 0 486.5558)">
					<stop  offset="0" style="stop-color:#F05370"/>
					<stop  offset="0.1728" style="stop-color:#BD947E"/>
					<stop  offset="0.3173" style="stop-color:#8BB686"/>
					<stop  offset="0.3832" style="stop-color:#6FC388"/>
					<stop  offset="0.5815" style="stop-color:#50C6DC"/>
					<stop  offset="0.8179" style="stop-color:#717DBC"/>
					<stop  offset="1" style="stop-color:#2F479D"/>
				</linearGradient>
				<path style="fill:url(#SVGID_00000096755513683014608470000002139469637842798252_);" d="M121.9,87.3
					c-2.9,4.9-3.7,10.1-3.5,15.4c0.2,5.5,1.3,10.9,3,16.1c3.7,11.8,9.4,22.5,15.9,33c4.6,7.4,9.8,14.5,15.3,21.3
					c3.7,4.6,7.6,9.1,11.7,13.5c4.1,4.4,8.4,8.6,12.6,12.8c4.5,4.4,9.3,8.4,14.2,12.4c5.3,4.4,10.9,8.4,16.6,12.2
					c9.4,6.1,19.1,11.5,29.8,14.9c5.2,1.6,10.4,2.8,15.9,2.8c4.1,0,8-0.8,11.7-2.8c0.2-0.1,0.4-0.2,0.8-0.4c-0.4,1-1.2,1.3-1.7,1.8
					c-3.9,3.7-7.7,7.4-11.6,11.1c-5.5,5.2-11,10.3-16.5,15.5c-5.4,5.2-12,6.6-19.2,6c-8.5-0.7-16.4-3.5-24.1-7.1
					c-12.7-5.9-24.1-13.7-34.9-22.4c-4.5-3.6-8.9-7.5-13.1-11.4c-4.2-3.9-8.3-7.9-12.2-12.1c-10.2-10.9-19.6-22.6-27.6-35.2
					c-6.6-10.4-12.4-21.3-16.2-33.1c-2.2-6.8-3.6-13.7-3.3-20.8c0.3-6.7,2.7-12.5,8.1-16.8c2-1.6,3.7-3.5,5.6-5.3
					c4.4-4,8.6-8.2,12.9-12.3c2.9-2.8,5.9-5.5,8.8-8.3C120.9,87.7,121.3,87.4,121.9,87.3z"/>
				
					<image style="display:none;overflow:visible;enable-background:new    ;" width="650" height="679" xlink:href="DA6DEA46.png"  transform="matrix(0.2408 0 0 0.2408 117.8191 78.9351)">
				</image>
			</g>
		</g>
	</g>
	<g class="st0">
		<path class="st4" d="M-4.4,389.8c-1.4-1.9-3-3.5-4.8-5s-3.7-2.8-5.6-3.8s-3.9-1.9-6-2.4c-2-0.6-4-0.8-6-0.8c-3.5,0-6.7,0.7-9.6,2
			c-2.9,1.3-5.5,3.2-7.7,5.5c-2.2,2.3-3.9,5.1-5.1,8.3c-1.2,3.2-1.8,6.7-1.8,10.4c0,3.7,0.6,7.2,1.8,10.4c1.2,3.2,2.9,6,5.1,8.4
			c2.2,2.4,4.7,4.2,7.7,5.6c2.9,1.3,6.1,2,9.6,2c1.9,0,3.8-0.2,5.8-0.7c2-0.5,3.9-1.2,5.9-2.1c1.9-0.9,3.8-2.1,5.7-3.4
			c1.8-1.3,3.5-2.8,5.1-4.4l14.1,14.9c-2.4,2.6-5.1,4.9-8.1,7s-6.1,3.9-9.3,5.4s-6.6,2.6-10.1,3.5c-3.5,0.8-6.9,1.2-10.3,1.2
			c-6.8,0-13.2-1.2-19-3.6s-10.9-5.7-15.1-10c-4.2-4.2-7.6-9.2-10-15c-2.4-5.8-3.6-12-3.6-18.8c0-6.7,1.2-12.8,3.7-18.6
			c2.5-5.7,5.9-10.6,10.2-14.8s9.5-7.4,15.4-9.8c5.9-2.4,12.4-3.6,19.3-3.6c3.4,0,6.8,0.4,10.2,1.1c3.4,0.8,6.7,1.8,9.9,3.2
			c3.2,1.4,6.2,3,9.1,4.9c2.9,1.9,5.4,4.1,7.7,6.5L-4.4,389.8z"/>
		<path class="st4" d="M65.4,381.5c4.7,1.7,8.8,4.1,12.1,7.3c3.4,3.1,6,6.9,7.8,11.3c1.8,4.4,2.8,9.3,2.8,14.7
			c0,5.4-0.9,10.3-2.8,14.8c-1.8,4.4-4.4,8.2-7.8,11.4c-3.4,3.1-7.4,5.6-12.1,7.3c-4.7,1.7-10,2.6-15.8,2.6
			c-5.8,0-11.1-0.9-15.8-2.6c-4.7-1.7-8.8-4.2-12.1-7.3c-3.4-3.1-6-6.9-7.8-11.4c-1.8-4.4-2.8-9.4-2.8-14.8c0-5.4,0.9-10.3,2.8-14.7
			c1.8-4.4,4.4-8.2,7.8-11.3c3.4-3.1,7.4-5.6,12.1-7.3c4.7-1.7,10-2.6,15.8-2.6C55.4,378.9,60.7,379.8,65.4,381.5z M43.6,398.9
			c-1.8,0.8-3.4,2-4.7,3.6c-1.3,1.5-2.3,3.4-3.1,5.5c-0.7,2.1-1.1,4.5-1.1,7.1s0.4,5,1.1,7.1s1.7,4,3.1,5.5c1.3,1.5,2.9,2.7,4.7,3.5
			c1.8,0.8,3.8,1.2,6,1.2c2.2,0,4.2-0.4,6-1.2c1.8-0.8,3.4-2,4.7-3.5s2.3-3.4,3-5.5c0.7-2.2,1.1-4.5,1.1-7.1c0-2.6-0.4-5-1.1-7.1
			c-0.7-2.1-1.7-4-3-5.5c-1.3-1.5-2.9-2.7-4.7-3.6c-1.8-0.8-3.8-1.3-6-1.3C47.4,397.6,45.4,398,43.6,398.9z"/>
		<path class="st4" d="M101.5,449.9c0.3-5.8,0.4-19.2,0.4-27.2v-7.5c0-7.1-0.1-9.8-0.4-15l-7.9-1.2v-5.1l25.6-8.6l2.2,1.4l1.2,14.4
			v21.7c0,8,0.1,21.4,0.4,27.2L101.5,449.9L101.5,449.9z M128.9,443.8v6H94.7v-6l12-2.6h9.9L128.9,443.8z M161.7,407.5v15.1
			c0,8.3,0.1,21.4,0.4,27.3h-21.5c0.3-5.8,0.4-18.9,0.4-27.2V409c0-8.3-2.1-11.3-7.2-11.3c-4.6,0-10.9,3.4-16,9.5h-4.4v-8.4h8.8
			l-4.9,3.6c9.1-13.1,16.5-17.3,25.8-17.3C154.2,385.2,161.7,392.5,161.7,407.5z M155.6,441.2l12.7,2.6v6h-34.2v-6l11.7-2.6
			L155.6,441.2L155.6,441.2z"/>
		<path class="st4" d="M181.5,449.9c0.3-5.8,0.4-19.2,0.4-27.2v-7.5c0-7.1-0.1-9.8-0.4-15l-7.9-1.2v-5.1l25.6-8.6l2.2,1.4l1.2,14.4
			v21.7c0,8,0.1,21.4,0.4,27.2L181.5,449.9L181.5,449.9z M208.8,443.8v6h-34.2v-6l12-2.6h9.9L208.8,443.8z M241.6,407.5v15.1
			c0,8.3,0.1,21.4,0.4,27.3h-21.5c0.3-5.8,0.4-18.9,0.4-27.2V409c0-8.3-2.1-11.3-7.2-11.3c-4.6,0-10.9,3.4-16,9.5h-4.4v-8.4h8.8
			l-4.9,3.6c9.1-13.1,16.5-17.3,25.8-17.3C234.1,385.2,241.6,392.5,241.6,407.5z M235.6,441.2l12.7,2.6v6H214v-6l11.7-2.6
			L235.6,441.2L235.6,441.2z"/>
		<path class="st4" d="M303.5,408.6c0-2-0.3-3.9-0.9-5.5c-0.6-1.6-1.5-3.1-2.6-4.2c-1.1-1.2-2.5-2.1-4-2.8c-1.6-0.6-3.3-1-5.1-1
			c-2.2,0-4.2,0.5-5.9,1.4c-1.8,0.9-3.2,2.2-4.5,3.9c-1.2,1.6-2.2,3.6-2.8,5.9c-0.6,2.3-1,4.7-1,7.4c0,3.1,0.4,5.8,1.2,8.3
			c0.8,2.4,1.9,4.5,3.4,6.1c1.4,1.6,3.2,2.9,5.3,3.8c2.1,0.9,4.3,1.3,6.8,1.3c3,0,5.9-0.6,8.7-1.8c2.8-1.2,5.4-3,7.8-5.3l12.3,12.1
			c-3.6,4-8,7.1-13.2,9.2c-5.1,2.2-11,3.2-17.6,3.2c-5.8,0-10.9-0.9-15.6-2.6c-4.6-1.7-8.5-4.1-11.7-7.2c-3.2-3.1-5.7-6.9-7.4-11.3
			c-1.7-4.4-2.6-9.3-2.6-14.6c0-5.5,0.9-10.4,2.7-14.8c1.8-4.4,4.3-8.2,7.5-11.4c3.2-3.2,7.1-5.6,11.6-7.3c4.5-1.7,9.5-2.6,15-2.6
			c6.1,0,11.5,1,16.1,3c4.6,2,8.5,4.8,11.5,8.4c3,3.6,5.2,8,6.6,13.2c1.4,5.2,1.8,11,1.4,17.5h-52.7v-12.4L303.5,408.6L303.5,408.6z
			"/>
		<path class="st4" d="M383,405.2c-1.5-2.3-3.4-4.1-5.6-5.4c-2.2-1.3-4.8-1.9-7.8-1.9c-2,0-3.9,0.4-5.6,1.2c-1.7,0.8-3.1,2-4.4,3.5
			s-2.2,3.3-2.9,5.4c-0.7,2.1-1,4.4-1,6.9c0,2.6,0.3,4.9,1,7c0.7,2.1,1.6,3.9,2.9,5.4s2.7,2.6,4.4,3.5c1.7,0.8,3.5,1.2,5.6,1.2
			c3,0,5.6-0.6,7.9-1.9c2.3-1.3,4.1-3.3,5.5-6l17.5,9.8c-1.4,2.7-3.2,5.1-5.3,7.2c-2.1,2.1-4.5,3.9-7.2,5.3c-2.7,1.4-5.7,2.5-9,3.3
			s-6.8,1.1-10.5,1.1c-5.4,0-10.3-0.9-14.8-2.6c-4.5-1.7-8.3-4.1-11.5-7.2c-3.2-3.1-5.6-6.9-7.4-11.3c-1.8-4.4-2.6-9.3-2.6-14.6
			c0-5.5,0.9-10.4,2.6-14.8c1.8-4.4,4.2-8.2,7.4-11.4c3.2-3.2,7-5.6,11.5-7.3c4.5-1.7,9.4-2.6,14.9-2.6c3.5,0,6.9,0.4,10.1,1.1
			c3.2,0.7,6.1,1.8,8.8,3.2c2.7,1.4,5.1,3.1,7.2,5.2c2.1,2.1,4,4.4,5.5,7L383,405.2z"/>
		<path class="st4" d="M405.3,379.8h51.3v15.3h-51.3V379.8z M438.4,424.8c0,1.3,0.2,2.4,0.5,3.3c0.3,0.9,0.7,1.7,1.3,2.3
			c0.5,0.6,1.2,1.1,2,1.4c0.8,0.3,1.7,0.4,2.7,0.4c1.1,0,2.4-0.2,3.9-0.6c1.4-0.4,3-1,4.6-1.7l4.5,16.3c-1.3,0.7-2.6,1.4-4.1,2
			c-1.5,0.6-3,1.1-4.7,1.5s-3.3,0.7-5,0.9c-1.7,0.2-3.4,0.3-5.2,0.3c-3.5,0-6.7-0.4-9.6-1.4c-2.9-1-5.4-2.4-7.5-4.3
			c-2.1-1.9-3.8-4.3-4.9-7.1c-1.2-2.8-1.8-6-1.8-9.7v-64.9h23.4L438.4,424.8L438.4,424.8z"/>
	</g>
	<g class="st0">
		<path class="st4" d="M525.3,229c-1.2-1.5-2.5-2.9-3.9-4.1c-1.5-1.2-3-2.3-4.6-3.1c-1.6-0.9-3.2-1.5-4.9-2
			c-1.7-0.5-3.3-0.7-4.9-0.7c-2.8,0-5.4,0.5-7.8,1.6c-2.4,1.1-4.5,2.6-6.3,4.5c-1.8,1.9-3.2,4.2-4.2,6.8c-1,2.6-1.5,5.5-1.5,8.5
			c0,3,0.5,5.9,1.5,8.5c1,2.6,2.4,4.9,4.2,6.9c1.8,1.9,3.9,3.5,6.3,4.6c2.4,1.1,5,1.6,7.8,1.6c1.6,0,3.1-0.2,4.7-0.6
			c1.6-0.4,3.2-1,4.8-1.7c1.6-0.8,3.1-1.7,4.6-2.8c1.5-1.1,2.9-2.3,4.2-3.6l11.5,12.1c-2,2.1-4.2,4-6.6,5.7c-2.4,1.7-5,3.2-7.6,4.4
			c-2.6,1.2-5.4,2.2-8.2,2.8c-2.8,0.7-5.6,1-8.4,1c-5.6,0-10.7-1-15.5-2.9c-4.8-2-8.9-4.7-12.3-8.1c-3.5-3.5-6.2-7.5-8.2-12.3
			s-3-9.8-3-15.3c0-5.4,1-10.5,3-15.1c2-4.7,4.8-8.7,8.3-12.1c3.5-3.4,7.7-6.1,12.6-8c4.8-1.9,10.1-2.9,15.8-2.9
			c2.8,0,5.5,0.3,8.3,0.9c2.8,0.6,5.5,1.5,8.1,2.6c2.6,1.1,5.1,2.5,7.4,4c2.3,1.6,4.4,3.3,6.2,5.3L525.3,229z"/>
		<path class="st4" d="M594.7,205.5c4.9,1.9,9.1,4.6,12.7,8s6.4,7.4,8.4,12.1c2,4.7,3,9.7,3,15.2c0,5.5-1,10.6-3,15.3
			c-2,4.7-4.8,8.8-8.4,12.2c-3.6,3.5-7.8,6.2-12.7,8.1s-10.2,2.9-16,2.9c-5.8,0-11.1-1-16-2.9c-4.9-2-9.1-4.7-12.7-8.1
			c-3.6-3.4-6.4-7.5-8.4-12.2c-2-4.7-3-9.8-3-15.3c0-5.5,1-10.5,3-15.2c2-4.7,4.8-8.7,8.4-12.1c3.6-3.4,7.8-6.1,12.7-8
			c4.9-1.9,10.2-2.9,16-2.9C584.4,202.6,589.7,203.6,594.7,205.5z M571.1,220.8c-2.5,1.1-4.6,2.6-6.4,4.6c-1.8,1.9-3.3,4.2-4.4,6.9
			s-1.6,5.5-1.6,8.7s0.5,6,1.6,8.7c1.1,2.7,2.6,5,4.4,7c1.8,2,4,3.5,6.4,4.7c2.5,1.1,5,1.7,7.8,1.7c2.7,0,5.3-0.6,7.6-1.7
			c2.4-1.1,4.5-2.7,6.2-4.7c1.8-2,3.2-4.3,4.2-7c1-2.7,1.5-5.6,1.5-8.7s-0.5-6-1.5-8.7c-1-2.7-2.4-5-4.2-6.9
			c-1.8-1.9-3.9-3.4-6.2-4.6c-2.4-1.1-4.9-1.7-7.6-1.7C576.2,219.1,573.6,219.7,571.1,220.8z"/>
		<path class="st4" d="M650.4,278h-25.1v-38.1c0-22.3,14.9-37.2,37.9-37.2c22.3,0,37.2,14.9,37.2,37.2V278h-25.1v-39.2
			c0-7.4-5-12.4-12.5-12.4c-7.4,0-12.4,5-12.4,12.4V278z"/>
		<path class="st4" d="M733.9,278h-25.1v-38.1c0-22.3,14.9-37.2,37.9-37.2c22.3,0,37.2,14.9,37.2,37.2V278h-25.1v-39.2
			c0-7.4-5-12.4-12.5-12.4c-7.4,0-12.4,5-12.4,12.4V278z"/>
		<path class="st4" d="M817.4,246.1c0.7,5.8,5.8,10.8,14.8,10.8c5.6,0,9-1.8,10.5-4.3h25.8c-3.2,18.4-17,26.8-37.3,26.8
			c-23.3,0-38.8-15.3-38.8-38.4c0-23,15.5-38.4,38.8-38.4c20.4,0,37.3,13,37.3,37.9v5.5L817.4,246.1L817.4,246.1z M842.2,231.8
			c0-5.2-4.3-9.9-10.5-9.9c-7.1,0-11.8,5.5-13.6,9.9H842.2z"/>
		<path class="st4" d="M933.4,229c-1.2-1.5-2.5-2.9-3.9-4.1c-1.5-1.2-3-2.3-4.6-3.1c-1.6-0.9-3.2-1.5-4.9-2
			c-1.7-0.5-3.3-0.7-4.9-0.7c-2.8,0-5.4,0.5-7.8,1.6c-2.4,1.1-4.5,2.6-6.3,4.5c-1.8,1.9-3.2,4.2-4.2,6.8c-1,2.6-1.5,5.5-1.5,8.5
			c0,3,0.5,5.9,1.5,8.5c1,2.6,2.4,4.9,4.2,6.9c1.8,1.9,3.9,3.5,6.3,4.6c2.4,1.1,5,1.6,7.8,1.6c1.6,0,3.1-0.2,4.7-0.6
			c1.6-0.4,3.2-1,4.8-1.7c1.6-0.8,3.1-1.7,4.6-2.8c1.5-1.1,2.9-2.3,4.2-3.6l11.5,12.1c-2,2.1-4.2,4-6.6,5.7c-2.4,1.7-5,3.2-7.6,4.4
			c-2.6,1.2-5.4,2.2-8.2,2.8c-2.8,0.7-5.6,1-8.4,1c-5.6,0-10.7-1-15.5-2.9c-4.8-2-8.9-4.7-12.3-8.1c-3.5-3.5-6.2-7.5-8.2-12.3
			s-3-9.8-3-15.3c0-5.4,1-10.5,3-15.1c2-4.7,4.8-8.7,8.3-12.1c3.5-3.4,7.7-6.1,12.6-8c4.8-1.9,10.1-2.9,15.8-2.9
			c2.8,0,5.5,0.3,8.3,0.9s5.5,1.5,8.1,2.6c2.6,1.1,5.1,2.5,7.4,4c2.3,1.6,4.4,3.3,6.2,5.3L933.4,229z"/>
		<path class="st4" d="M948.2,203.1h54.7v16.3h-54.7V203.1z M983.5,251.2c0,1.4,0.2,2.6,0.5,3.6c0.3,1,0.8,1.8,1.4,2.5
			c0.6,0.6,1.3,1.1,2.1,1.5c0.9,0.3,1.8,0.5,2.9,0.4c1.2,0,2.6-0.2,4.1-0.7c1.5-0.4,3.2-1,5-1.8l4.8,17.4c-1.3,0.8-2.8,1.5-4.4,2.1
			s-3.3,1.2-5,1.6s-3.5,0.8-5.3,1c-1.8,0.2-3.7,0.3-5.5,0.3c-3.7,0-7.2-0.5-10.2-1.5c-3.1-1-5.8-2.6-8-4.6c-2.3-2-4-4.5-5.3-7.5
			c-1.2-3-1.9-6.4-1.9-10.3v-69.2h24.9L983.5,251.2L983.5,251.2z"/>
	</g>
</g>
<g id="Logo_3D" class="st0">
	
		<image style="display:inline;overflow:visible;enable-background:new    ;" width="996" height="447" xlink:href="DA6DEA45.jpeg"  transform="matrix(0.9978 0 0 0.9978 -451.5557 292.833)">
	</image>
	<g class="st4">
		<g>
			
				<image style="overflow:visible;enable-background:new    ;" width="787" height="808" xlink:href="DA6DEA42.png"  transform="matrix(0.2403 0 0 0.2403 -360.3571 78.7313)">
			</image>
		</g>
	</g>
	
		<linearGradient id="SVGID_00000145020053949022745520000009144896187045615252_" gradientUnits="userSpaceOnUse" x1="-323.8562" y1="329.8239" x2="-19.1298" y2="254.4244" gradientTransform="matrix(0.6758 0.3902 0.4225 -0.7318 -280.1972 463.6785)">
		<stop  offset="0" style="stop-color:#F4AA88"/>
		<stop  offset="4.750000e-02" style="stop-color:#EEAD8B"/>
		<stop  offset="0.1161" style="stop-color:#DFB695"/>
		<stop  offset="0.1974" style="stop-color:#C4C3A5"/>
		<stop  offset="0.2826" style="stop-color:#9ACFBA"/>
		<stop  offset="0.5312" style="stop-color:#50C6DC"/>
		<stop  offset="0.7253" style="stop-color:#717DBC"/>
		<stop  offset="1" style="stop-color:#C99EC9"/>
	</linearGradient>
	<polygon style="display:inline;fill:url(#SVGID_00000145020053949022745520000009144896187045615252_);" points="-211.6,298 
		-402.8,187.6 -333.7,67.9 -142.5,178.3 	"/>
</g>
<ellipse transform="matrix(0.7071 -0.7071 0.7071 0.7071 -58.7679 184.5183)" class="st6" cx="193.3" cy="163.2" rx="46.7" ry="104.8"/>
</svg>
