<?xml version="1.0" encoding="utf-8"?>
<!-- Generator: Adobe Illustrator 27.9.0, SVG Export Plug-In . SVG Version: 6.00 Build 0)  -->
<svg version="1.1" id="Layer_1" xmlns="http://www.w3.org/2000/svg" xmlns:xlink="http://www.w3.org/1999/xlink" x="0px" y="0px"
	 viewBox="0 0 535.6 535.6" style="enable-background:new 0 0 535.6 535.6;" xml:space="preserve">
<style type="text/css">
	.st0{fill:url(#SVGID_1_);}
	.st1{fill:none;stroke:#000000;stroke-width:3;stroke-linecap:round;stroke-miterlimit:10;}
	.st2{fill:#384EA1;}
	.st3{fill:#FFFFFF;}
</style>
<g id="Logo_Vector">
	<g id="Typeface">
		<g id="Icon">
			<g>
				<g>
					<path d="M346.1,119.8c-4.3-5.7-9.2-10.8-14.7-15.3c-5.5-4.5-11.2-8.4-17.1-11.6c-5.9-3.2-12-5.7-18.2-7.4
						c-6.2-1.7-12.3-2.6-18.4-2.6c-10.5,0-20.3,2-29.2,6.1c-9,4.1-16.7,9.7-23.4,16.8c-6.6,7.1-11.8,15.5-15.6,25.3
						c-3.8,9.7-5.6,20.3-5.6,31.8c0,11.3,1.9,21.9,5.6,31.7c3.8,9.8,8.9,18.3,15.6,25.6c6.6,7.2,14.4,12.9,23.4,17
						c8.9,4.1,18.7,6.1,29.2,6.1c5.8,0,11.7-0.8,17.7-2.3c6-1.5,11.9-3.7,17.9-6.5c5.9-2.8,11.7-6.2,17.3-10.3
						c5.6-4,10.8-8.5,15.5-13.5l42.8,45.2c-7.4,7.8-15.6,14.8-24.7,21.2c-9.1,6.4-18.6,11.8-28.4,16.4s-20.1,8.1-30.6,10.6
						c-10.5,2.5-20.9,3.8-31.2,3.8c-20.8,0-40.1-3.7-57.8-11s-33.1-17.4-46-30.3c-12.9-12.9-23-28.1-30.4-45.7
						c-7.4-17.6-11.1-36.6-11.1-57.1c0-20.3,3.8-39.1,11.3-56.5c7.5-17.4,17.9-32.4,31.1-45C184.3,49.5,200,39.6,218,32.4
						c18-7.2,37.6-10.9,58.8-10.9c10.3,0,20.6,1.2,30.9,3.5c10.3,2.3,20.4,5.5,30.1,9.7c9.7,4.1,18.9,9.1,27.6,15
						c8.7,5.9,16.4,12.5,23.3,19.8L346.1,119.8z"/>
				</g>
				<g>
					<path d="M145.6,115.4c6.8-7.4,14.6-14,23.3-19.8c8.7-5.9,17.9-10.9,27.6-15c9.7-4.1,19.8-7.4,30.1-9.7
						c10.3-2.3,20.6-3.5,30.9-3.5c21.2,0,40.8,3.6,58.8,10.9c18,7.2,33.7,17.2,46.9,29.8s23.6,27.6,31.1,45
						c7.5,17.4,11.2,36.2,11.2,56.5c0,20.5-3.7,39.6-11.1,57.1c-7.4,17.6-17.5,32.8-30.4,45.7c-12.9,12.9-28.2,23-46,30.3
						s-37,11-57.8,11c-10.3,0-20.7-1.3-31.2-3.8c-10.5-2.5-20.7-6-30.6-10.6c-9.9-4.5-19.3-10-28.4-16.4
						c-9.1-6.4-17.3-13.5-24.7-21.2l42.8-45.2c4.7,5,9.9,9.5,15.5,13.5c5.6,4,11.4,7.4,17.3,10.3c5.9,2.8,11.9,5,17.9,6.5
						c6,1.5,11.9,2.3,17.7,2.3c10.5,0,20.3-2,29.2-6.1c9-4.1,16.7-9.7,23.4-17c6.6-7.2,11.8-15.8,15.6-25.6
						c3.8-9.8,5.6-20.4,5.6-31.7c0-11.4-1.9-22-5.6-31.8c-3.8-9.7-8.9-18.2-15.6-25.3c-6.6-7.1-14.4-12.7-23.4-16.8
						c-8.9-4.1-18.7-6.1-29.2-6.1c-6.1,0-12.2,0.9-18.4,2.6c-6.2,1.7-12.2,4.2-18.2,7.4c-5.9,3.2-11.6,7.1-17.1,11.6
						c-5.5,4.5-10.4,9.6-14.7,15.3L145.6,115.4z"/>
				</g>
			</g>
			<g>
				
					<linearGradient id="SVGID_1_" gradientUnits="userSpaceOnUse" x1="326.9045" y1="261.4112" x2="178.2339" y2="410.0818" gradientTransform="matrix(1 0 0 -1 0 535.2106)">
					<stop  offset="0" style="stop-color:#F05370"/>
					<stop  offset="0.1728" style="stop-color:#BD947E"/>
					<stop  offset="0.3173" style="stop-color:#8BB686"/>
					<stop  offset="0.3832" style="stop-color:#6FC388"/>
					<stop  offset="0.5815" style="stop-color:#50C6DC"/>
					<stop  offset="0.8179" style="stop-color:#717DBC"/>
					<stop  offset="1" style="stop-color:#2F479D"/>
				</linearGradient>
				<path class="st0" d="M209.8,95.6c-2.9,4.9-3.7,10.1-3.5,15.4c0.2,5.5,1.3,10.9,3,16.1c3.7,11.8,9.4,22.5,15.9,33
					c4.6,7.4,9.8,14.5,15.3,21.3c3.7,4.6,7.6,9.1,11.7,13.5c4.1,4.4,8.4,8.6,12.6,12.8c4.5,4.4,9.3,8.4,14.2,12.4
					c5.3,4.4,10.9,8.4,16.6,12.2c9.4,6.1,19.1,11.5,29.8,14.9c5.2,1.6,10.4,2.8,15.9,2.8c4.1,0,8-0.8,11.7-2.8
					c0.2-0.1,0.4-0.2,0.8-0.4c-0.4,1-1.2,1.3-1.7,1.8c-3.9,3.7-7.7,7.4-11.6,11.1c-5.5,5.2-11,10.3-16.5,15.5
					c-5.4,5.2-12,6.6-19.2,6c-8.5-0.7-16.4-3.5-24.1-7.1c-12.7-5.9-24.1-13.7-34.9-22.4c-4.5-3.6-8.9-7.5-13.1-11.4
					c-4.2-3.9-8.3-7.9-12.2-12.1c-10.2-10.9-19.6-22.6-27.6-35.2c-6.6-10.4-12.4-21.3-16.2-33.1c-2.2-6.8-3.6-13.7-3.3-20.8
					c0.3-6.7,2.7-12.5,8.1-16.8c2-1.6,3.7-3.5,5.6-5.3c4.4-4,8.6-8.2,12.9-12.3c2.9-2.8,5.9-5.5,8.8-8.3
					C208.9,96,209.2,95.7,209.8,95.6z"/>
			</g>
		</g>
		<g id="School">
			<g>
				<path d="M206.1,479.5c-0.8-0.5-1.6-0.9-2.5-1.4c-0.9-0.4-1.8-0.8-2.7-1.1s-1.9-0.5-2.8-0.7s-1.9-0.3-2.7-0.3
					c-0.6,0-1.1,0.1-1.8,0.2s-1.2,0.3-1.7,0.6c-0.5,0.3-0.9,0.6-1.2,1.1s-0.5,1-0.5,1.7c0,0.9,0.3,1.7,0.8,2.3
					c0.5,0.6,1.3,1.1,2.2,1.6c0.9,0.4,1.9,0.8,3.1,1.2c1.1,0.3,2.3,0.7,3.5,1.1c1.2,0.4,2.4,0.8,3.5,1.3c1.1,0.5,2.2,1.2,3.1,1.9
					c0.9,0.8,1.6,1.7,2.2,2.9s0.8,2.5,0.8,4.1c0,1.9-0.4,3.5-1.2,4.8c-0.8,1.3-1.9,2.4-3.2,3.3c-1.3,0.9-2.8,1.5-4.4,1.9
					c-1.7,0.4-3.3,0.6-5,0.6c-1.4,0-2.8-0.1-4.2-0.4c-1.4-0.3-2.7-0.6-4-1.1s-2.6-1.1-3.8-1.8c-1.2-0.7-2.3-1.5-3.3-2.4l3-5.7
					c0.8,0.7,1.7,1.4,2.7,2.1c1,0.7,2,1.2,3.1,1.7c1.1,0.5,2.2,0.9,3.3,1.1c1.1,0.3,2.2,0.4,3.3,0.4c0.7,0,1.4-0.1,2.1-0.2
					c0.7-0.1,1.3-0.4,1.9-0.7c0.6-0.3,1-0.7,1.4-1.3c0.4-0.5,0.6-1.2,0.6-2c0-1-0.3-1.7-0.8-2.4c-0.6-0.6-1.3-1.1-2.2-1.6
					c-0.9-0.4-1.9-0.8-3.1-1.1c-1.1-0.3-2.3-0.7-3.5-1c-1.2-0.4-2.4-0.8-3.5-1.3c-1.1-0.5-2.2-1.1-3.1-1.9s-1.6-1.7-2.2-2.8
					c-0.5-1.1-0.8-2.5-0.8-4.1c0-1.8,0.4-3.3,1.1-4.6c0.8-1.3,1.8-2.4,3-3.2s2.7-1.5,4.3-1.9s3.3-0.6,5-0.6c1.1,0,2.3,0.1,3.5,0.3
					c1.2,0.2,2.3,0.4,3.4,0.7c1.1,0.3,2.2,0.7,3.3,1.2c1.1,0.5,2,1,3,1.6L206.1,479.5z"/>
				<path d="M234,487.4c-0.8-0.9-1.8-1.7-3-2.2c-1.1-0.5-2.5-0.8-4-0.8c-1,0-2,0.2-2.9,0.6c-0.9,0.4-1.6,1-2.3,1.7
					c-0.6,0.7-1.1,1.6-1.5,2.6c-0.4,1-0.5,2.1-0.5,3.3c0,1.2,0.2,2.4,0.5,3.4s0.8,1.9,1.5,2.6s1.4,1.3,2.3,1.7s1.8,0.6,2.9,0.6
					c1.6,0,2.9-0.3,4.1-0.8c1.2-0.5,2.2-1.4,3-2.5l4.5,3.4c-0.6,0.9-1.3,1.6-2.1,2.3c-0.8,0.7-1.7,1.3-2.7,1.7s-2.1,0.8-3.3,1.1
					c-1.2,0.2-2.4,0.4-3.8,0.4c-2.1,0-3.9-0.3-5.7-1s-3.2-1.6-4.4-2.8c-1.2-1.2-2.2-2.7-2.8-4.4c-0.7-1.7-1-3.6-1-5.6
					c0-2.1,0.3-4,1-5.7s1.6-3.2,2.8-4.4s2.7-2.2,4.4-2.8s3.6-1,5.6-1c1.3,0,2.5,0.1,3.7,0.3s2.2,0.5,3.2,1s1.9,0.9,2.7,1.6
					c0.8,0.6,1.5,1.3,2.1,2.1L234,487.4z"/>
				<path d="M244.1,468.3h7v37.9h-7V468.3z M263.9,491c0-1-0.1-1.8-0.4-2.6s-0.7-1.4-1.2-2c-0.5-0.5-1.1-0.9-1.9-1.2
					c-0.7-0.3-1.5-0.4-2.5-0.4c-1.1,0-2,0.2-2.9,0.6c-0.9,0.4-1.6,1-2.2,1.7c-0.6,0.7-1.1,1.5-1.4,2.5c-0.3,1-0.5,2-0.5,3.1h-1.8
					c0-2.5,0.3-4.6,0.8-6.3c0.5-1.8,1.3-3.2,2.3-4.4c1-1.2,2.2-2,3.6-2.6c1.4-0.5,3-0.8,4.8-0.8c1.5,0,3,0.2,4.2,0.7
					s2.3,1.2,3.2,2.1c0.9,0.9,1.5,2,2,3.3c0.5,1.3,0.7,2.8,0.7,4.4v17.1h-7L263.9,491L263.9,491z"/>
				<path d="M296.4,479.6c1.8,0.7,3.3,1.6,4.6,2.8c1.3,1.2,2.3,2.7,3,4.4c0.7,1.7,1,3.6,1,5.7c0,2.1-0.4,3.9-1,5.7s-1.7,3.2-3,4.4
					s-2.8,2.2-4.6,2.8c-1.8,0.7-3.8,1-5.9,1c-2.2,0-4.1-0.3-5.9-1c-1.8-0.7-3.3-1.6-4.6-2.8s-2.3-2.7-3-4.4s-1-3.6-1-5.7
					c0-2.1,0.4-4,1-5.7c0.7-1.7,1.7-3.2,3-4.4c1.3-1.2,2.8-2.2,4.6-2.8c1.8-0.7,3.8-1,5.9-1C292.6,478.6,294.6,479,296.4,479.6z
					 M287.4,484.9c-0.9,0.4-1.7,1-2.4,1.7c-0.7,0.7-1.2,1.6-1.5,2.6c-0.4,1-0.5,2.1-0.5,3.4c0,1.2,0.2,2.4,0.5,3.4
					c0.4,1,0.9,1.9,1.5,2.6c0.7,0.7,1.4,1.3,2.4,1.7c0.9,0.4,1.9,0.6,3,0.6c1.1,0,2.1-0.2,3-0.6c0.9-0.4,1.7-1,2.4-1.7
					s1.2-1.6,1.5-2.6c0.4-1,0.5-2.2,0.5-3.4s-0.2-2.4-0.5-3.4c-0.4-1-0.9-1.9-1.5-2.6c-0.7-0.7-1.4-1.3-2.4-1.7
					c-0.9-0.4-1.9-0.6-3-0.6C289.4,484.3,288.3,484.5,287.4,484.9z"/>
				<path d="M328.5,479.6c1.8,0.7,3.3,1.6,4.6,2.8c1.3,1.2,2.3,2.7,3,4.4c0.7,1.7,1,3.6,1,5.7c0,2.1-0.4,3.9-1,5.7s-1.7,3.2-3,4.4
					s-2.8,2.2-4.6,2.8c-1.8,0.7-3.8,1-5.9,1c-2.2,0-4.1-0.3-5.9-1c-1.8-0.7-3.3-1.6-4.6-2.8s-2.3-2.7-3-4.4s-1-3.6-1-5.7
					c0-2.1,0.4-4,1-5.7c0.7-1.7,1.7-3.2,3-4.4c1.3-1.2,2.8-2.2,4.6-2.8c1.8-0.7,3.8-1,5.9-1C324.8,478.6,326.8,479,328.5,479.6z
					 M319.6,484.9c-0.9,0.4-1.7,1-2.4,1.7c-0.7,0.7-1.2,1.6-1.5,2.6c-0.4,1-0.5,2.1-0.5,3.4c0,1.2,0.2,2.4,0.5,3.4
					c0.4,1,0.9,1.9,1.5,2.6c0.7,0.7,1.4,1.3,2.4,1.7c0.9,0.4,1.9,0.6,3,0.6c1.1,0,2.1-0.2,3-0.6c0.9-0.4,1.7-1,2.4-1.7
					s1.2-1.6,1.5-2.6c0.4-1,0.5-2.2,0.5-3.4s-0.2-2.4-0.5-3.4c-0.4-1-0.9-1.9-1.5-2.6c-0.7-0.7-1.4-1.3-2.4-1.7
					c-0.9-0.4-1.9-0.6-3-0.6C321.5,484.3,320.5,484.5,319.6,484.9z"/>
				<path d="M349.2,497.4c0,1.1,0.2,1.9,0.7,2.4s1.1,0.7,1.8,0.7c0.4,0,0.8-0.1,1.3-0.2s0.9-0.4,1.4-0.6l0.8,5.5
					c-0.9,0.5-1.7,0.8-2.6,1c-0.9,0.2-1.7,0.3-2.6,0.3c-1.1,0-2.1-0.2-3-0.5c-0.9-0.4-1.8-0.9-2.5-1.6c-0.7-0.7-1.3-1.6-1.7-2.7
					s-0.6-2.3-0.6-3.7v-29.7h7L349.2,497.4L349.2,497.4z"/>
			</g>
			<line class="st1" x1="19.8" y1="491.5" x2="157.8" y2="491.5"/>
			<line class="st1" x1="373.1" y1="488.4" x2="514.3" y2="488.4"/>
		</g>
		<g id="Connect_type">
			<path d="M87.2,441.2c-1.2,1.5-2.5,2.9-3.8,4.1c-2.1,2-4.4,3.7-6.7,5c-4.8,2.8-9.8,4.5-14.9,5.2c-5.1,0.7-10,0.4-14.7-0.9
				c-4.7-1.3-9.1-3.4-13.2-6.5c-4.1-3.1-7.5-7-10.2-11.8c-2.7-4.7-4.4-9.6-5-14.6c-0.6-5-0.2-9.9,1.2-14.6c1.4-4.7,3.7-9.1,6.9-13.2
				c3.2-4.1,7.3-7.6,12.2-10.4c2.4-1.4,4.9-2.5,7.6-3.3c2.7-0.9,5.5-1.5,8.3-1.8c2.8-0.3,5.6-0.4,8.4-0.2c1.7,0.1,3.3,0.3,4.9,0.7
				l3.2,0.8l-3.2,17.4c-1.8-0.7-3.6-1.3-5.5-1.6c-1.9-0.3-3.7-0.5-5.5-0.4c-1.8,0-3.5,0.3-5.2,0.7c-1.7,0.4-3.2,1-4.6,1.9
				c-2.4,1.4-4.4,3.2-6,5.3c-1.5,2.1-2.6,4.5-3.2,7c-0.6,2.5-0.7,5.2-0.2,8c0.4,2.8,1.4,5.5,3,8.1c1.5,2.6,3.4,4.8,5.6,6.6
				c2.2,1.8,4.5,3.1,7.1,3.8c2.5,0.8,5.1,1.1,7.7,0.8c2.6-0.2,5.2-1.1,7.6-2.5c1.3-0.8,2.6-1.7,3.8-2.9c1.2-1.1,2.3-2.5,3.3-3.9
				c1-1.5,1.9-3,2.6-4.7c0.8-1.7,1.4-3.4,1.8-5.2h0c0,0.3,0,0.5,0,0.8c0,5.5,1,10.6,3.1,15.3C84.4,436.8,85.7,439.1,87.2,441.2z"/>
			<path d="M164,407.9c-0.4-1.4-0.9-2.7-1.5-4c-1.4-3.3-3.3-6.3-5.5-9c-0.9-1.1-1.9-2.1-2.9-3.1c-0.4-0.4-0.9-0.8-1.3-1.2
				c-3.3-2.8-7.1-5.1-11.4-6.8c-4.9-1.9-10.2-2.9-16-2.9s-11.1,1-16,2.9c-4.9,1.9-9.1,4.6-12.7,8c-3.6,3.4-6.4,7.4-8.4,12.1
				c-1.9,4.4-2.9,9.2-3,14.4c0,0.3,0,0.5,0,0.8c0,5.5,1,10.6,3.1,15.3c1.1,2.5,2.3,4.8,3.8,6.9c1.3,1.9,2.9,3.7,4.6,5.4
				c3.6,3.4,7.8,6.1,12.7,8.1c4.9,2,10.2,2.9,16,2.9s11.1-1,16-2.9c0.1-0.1,0.3-0.1,0.4-0.2c2.9-1.2,5.6-2.6,8-4.4
				c1.5-1.1,2.9-2.3,4.3-3.6c3.3-3.2,6-7,8-11.3c0.2-0.3,0.3-0.6,0.4-1c2-4.7,3.1-9.8,3.1-15.3C165.6,415.1,165.1,411.4,164,407.9z
				 M143.8,427.8c-1,2.7-2.4,5-4.2,7c-1.8,2-3.9,3.5-6.2,4.6c-2.4,1.1-4.9,1.7-7.6,1.7c-2.7,0-5.3-0.6-7.8-1.7
				c-2.4-1.1-4.6-2.7-6.4-4.6c-1.8-2-3.3-4.3-4.4-7c-1.1-2.7-1.6-5.6-1.6-8.7c0-3.1,0.5-6,1.6-8.6c0.8-2.1,2.9-5.4,4.4-6.9
				c1.8-1.9,4-3.4,6.4-4.6c2.4-1.1,5.1-1.7,7.8-1.7c2.7,0,5.3,0.5,7.6,1.7c2.4,1.1,4.5,2.6,6.2,4.6c1.8,1.9,3.2,4.2,4.2,6.9
				c1,2.7,1.5,5.5,1.5,8.6C145.3,422.2,144.8,425.1,143.8,427.8z"/>
			<g>
				<path d="M221.9,418.2v38.1h-20.3v-39.8c0-10.2-6.9-17.2-17.4-17.2c-7,0-12.5,3.3-15.3,8.7c-0.4-1.4-0.9-2.7-1.5-4
					c-1.4-3.3-3.3-6.3-5.5-9c-0.9-1.1-1.9-2.1-2.9-3.1c-0.4-0.4-0.9-0.8-1.3-1.2c6.6-6.1,15.8-9.6,26.9-9.6
					C207,381,221.9,395.9,221.9,418.2z"/>
				<path d="M305.2,418.2v38.1h-20.3v-39.8c0-10.2-7-17.2-17.4-17.2c-10.2,0-17.2,7-17.2,17.2v39.8h-20.3v-38.1
					c0-22.3,14.9-37.2,37.9-37.2C290.3,381,305.2,395.9,305.2,418.2z"/>
				<g>
					<path class="st2" d="M373.1,431.3L373.1,431.3L373.1,431.3L373.1,431.3z"/>
					<path d="M390.8,425.8c0.5-6.9,0-13.1-1.5-18.7c-1.5-5.6-3.8-10.3-7-14.2c-3.2-3.9-7.3-6.9-12.3-9s-10.7-3.2-17.3-3.2
						c-5.9,0-11.2,0.9-16,2.8c-4.8,1.9-9,4.5-12.4,7.9c-3.5,3.4-6.1,7.5-8,12.2s-2.9,10-2.9,15.9c0,5.8,0.9,11,2.8,15.7
						c1.9,4.7,4.5,8.7,7.9,12.1c1.8,1.8,3.8,3.3,6.1,4.7c2,1.2,4.1,2.2,6.5,3.1c5,1.8,10.5,2.7,16.7,2.7c2.2,0,4.3-0.1,6.4-0.3
						c0.5,0,1-0.1,1.5-0.2c0.2,0,0.5-0.1,0.7-0.1c0.4-0.1,0.9-0.1,1.3-0.2c0.5-0.1,1.1-0.2,1.6-0.3c0,0,0.1,0,0.1,0
						c0.5-0.1,1-0.2,1.5-0.4c0.5-0.1,1-0.3,1.5-0.4c7.5-2.2,13.4-6.3,17.3-12.5c2.2-3.5,3.9-7.1,4.8-11.9h-19.8c0,0-2.3,4.4-5.3,5.6
						s-6.1,1.9-9.4,1.9c-2.6,0-5.1-0.5-7.3-1.4s-4.1-2.3-5.6-4.1s-2.8-4-3.6-6.6c-0.1-0.3-0.2-0.7-0.3-1L390.8,425.8L390.8,425.8z
						 M338.1,412.5c0.2-0.9,0.4-1.7,0.6-2.5c0.7-2.4,1.7-4.5,3-6.3s2.9-3.1,4.8-4.1c1.9-1,4-1.5,6.4-1.5c2,0,3.8,0.4,5.5,1
						c1.7,0.7,3.1,1.7,4.3,3c1.2,1.3,2.1,2.8,2.8,4.5c0.6,1.8,1,3.7,1,5.9L338.1,412.5L338.1,412.5z"/>
				</g>
				<path d="M457.7,418.2c-0.4,1.8-1,3.5-1.8,5.2c-0.8,1.7-1.6,3.2-2.6,4.7c-1,1.5-2.1,2.8-3.3,3.9c-1.2,1.1-2.5,2.1-3.8,2.9
					c-2.5,1.4-5,2.2-7.6,2.5c-2.6,0.2-5.2,0-7.7-0.8c-2.5-0.8-4.9-2.1-7-3.8c-2.2-1.8-4-4-5.5-6.6c-1.5-2.7-2.5-5.4-3-8.1
					c-0.4-2.8-0.4-5.4,0.2-8c0.6-2.5,1.6-4.9,3.2-7c1.5-2.1,3.5-3.9,6-5.3c1.4-0.8,2.9-1.4,4.6-1.9c1.7-0.4,3.4-0.7,5.2-0.7
					c1.8,0,3.6,0.1,5.5,0.4c1.9,0.3,3.7,0.9,5.5,1.6l3.1-17.4c-2.6-0.8-5.3-1.3-8.1-1.5c-2.8-0.2-5.6-0.1-8.4,0.2
					c-2.8,0.3-5.6,0.9-8.3,1.8c-2.7,0.9-5.2,2-7.6,3.3c-4.9,2.8-9,6.3-12.2,10.4c-3.2,4.1-5.5,8.5-6.9,13.2
					c-1.4,4.7-1.8,9.6-1.2,14.6c0.6,5,2.2,9.9,5,14.6c2.8,4.8,6.2,8.7,10.2,11.8s8.5,5.3,13.2,6.5c4.7,1.3,9.6,1.6,14.7,0.9
					c5.1-0.7,10.1-2.4,14.9-5.2c2.4-1.4,4.6-3.1,6.7-5s4-4.2,5.7-6.5c1.7-2.4,3.1-4.9,4.4-7.6c1.2-2.7,2.2-5.4,2.9-8.2L457.7,418.2z
					"/>
				<path d="M471.3,381.4H516v16.3h-44.6V381.4z M500.2,457.3c-3,0-5.5-0.5-8-1.5c-2.5-1-4.7-2.6-6.6-4.6c-1.8-2-3.3-4.5-4.3-7.5
					c-1-3-1.5-6.4-1.5-10.3v-69.2h20.3v65.4"/>
			</g>
		</g>
	</g>
</g>
<ellipse transform="matrix(0.724 -0.6898 0.6898 0.724 -41.0435 241.0665)" class="st3" cx="280.7" cy="171.8" rx="39.4" ry="104.7"/>
</svg>
