<?xml version="1.0" encoding="UTF-8"?>
<svg id="Layer_1" xmlns="http://www.w3.org/2000/svg" version="1.1" viewBox="0 0 592.91 736.05">
  <!-- Generator: Adobe Illustrator 29.7.1, SVG Export Plug-In . SVG Version: 2.1.1 Build 8)  -->
  <defs>
    <style>
      .st0 {
        fill: #fff;
      }
    </style>
  </defs>
  <path class="st0" d="M579.41,111.73v573.28c0,21.56-18.18,39.04-40.6,39.04H54.1c-22.42,0-40.6-17.48-40.6-39.04V88.73c0-21.56,18.18-39.04,40.6-39.04h62.59s7.13,0,7.13,0c8.17,0,14.76-6.7,14.61-14.88h0c-.23-12.53,9.86-22.81,22.4-22.81h248.1c19.14,0,34.8,15.06,34.8,33.46v10.5c0,9.24,7.79,16.73,17.4,16.73h77.69c22.42,0,40.6,17.48,40.6,39.04Z"/>
</svg>